<mxfile host="app.diagrams.net" modified="2023-03-20T16:08:29.014Z" agent="5.0 (Macintosh; Intel Mac OS X 10_15_7) AppleWebKit/537.36 (KHTML, like Gecko) Chrome/111.0.0.0 Safari/537.36" etag="mkMOZgQiYPPDDejH885L" version="21.0.8" type="github">
  <diagram name="第 1 页" id="PdXPiOAoYcO0i1RdsqXi">
    <mxGraphModel dx="1272" dy="712" grid="1" gridSize="10" guides="1" tooltips="1" connect="1" arrows="1" fold="1" page="1" pageScale="1" pageWidth="827" pageHeight="1169" math="0" shadow="0">
      <root>
        <mxCell id="0" />
        <mxCell id="1" parent="0" />
        <mxCell id="vdpzPohevGCHTZ9PX8rA-121" value="" style="rounded=0;whiteSpace=wrap;html=1;" vertex="1" parent="1">
          <mxGeometry x="450" y="263" width="120" height="270" as="geometry" />
        </mxCell>
        <mxCell id="vdpzPohevGCHTZ9PX8rA-117" value="" style="rounded=0;whiteSpace=wrap;html=1;" vertex="1" parent="1">
          <mxGeometry x="707" y="750" width="433" height="140" as="geometry" />
        </mxCell>
        <mxCell id="vdpzPohevGCHTZ9PX8rA-80" value="" style="rounded=0;whiteSpace=wrap;html=1;" vertex="1" parent="1">
          <mxGeometry x="1020" y="20" width="290" height="160" as="geometry" />
        </mxCell>
        <mxCell id="vdpzPohevGCHTZ9PX8rA-27" value="" style="rounded=0;whiteSpace=wrap;html=1;" vertex="1" parent="1">
          <mxGeometry x="850" y="440" width="450" height="180" as="geometry" />
        </mxCell>
        <mxCell id="vdpzPohevGCHTZ9PX8rA-70" value="" style="rounded=0;whiteSpace=wrap;html=1;" vertex="1" parent="1">
          <mxGeometry x="906" y="473" width="150" height="60" as="geometry" />
        </mxCell>
        <mxCell id="vdpzPohevGCHTZ9PX8rA-69" value="" style="rounded=0;whiteSpace=wrap;html=1;" vertex="1" parent="1">
          <mxGeometry x="1120" y="473" width="150" height="60" as="geometry" />
        </mxCell>
        <mxCell id="vdpzPohevGCHTZ9PX8rA-20" value="" style="rounded=0;whiteSpace=wrap;html=1;" vertex="1" parent="1">
          <mxGeometry x="850" y="244" width="450" height="166" as="geometry" />
        </mxCell>
        <mxCell id="vdpzPohevGCHTZ9PX8rA-68" value="" style="rounded=0;whiteSpace=wrap;html=1;" vertex="1" parent="1">
          <mxGeometry x="1104" y="275" width="150" height="60" as="geometry" />
        </mxCell>
        <mxCell id="vdpzPohevGCHTZ9PX8rA-67" value="" style="rounded=0;whiteSpace=wrap;html=1;" vertex="1" parent="1">
          <mxGeometry x="910" y="276" width="150" height="60" as="geometry" />
        </mxCell>
        <mxCell id="vdpzPohevGCHTZ9PX8rA-57" value="" style="rounded=0;whiteSpace=wrap;html=1;" vertex="1" parent="1">
          <mxGeometry x="605" y="264" width="120" height="270" as="geometry" />
        </mxCell>
        <mxCell id="vdpzPohevGCHTZ9PX8rA-1" value="" style="sketch=0;aspect=fixed;pointerEvents=1;shadow=0;dashed=0;html=1;strokeColor=none;labelPosition=center;verticalLabelPosition=bottom;verticalAlign=top;align=center;fillColor=#00188D;shape=mxgraph.azure.user" vertex="1" parent="1">
          <mxGeometry x="160" y="110" width="47" height="50" as="geometry" />
        </mxCell>
        <mxCell id="vdpzPohevGCHTZ9PX8rA-2" value="" style="sketch=0;aspect=fixed;pointerEvents=1;shadow=0;dashed=0;html=1;strokeColor=none;labelPosition=center;verticalLabelPosition=bottom;verticalAlign=top;align=center;shape=mxgraph.mscae.enterprise.user_permissions;fillColor=#0078D7;" vertex="1" parent="1">
          <mxGeometry x="154" y="440" width="47" height="50" as="geometry" />
        </mxCell>
        <mxCell id="vdpzPohevGCHTZ9PX8rA-3" value="" style="sketch=0;aspect=fixed;pointerEvents=1;shadow=0;dashed=0;html=1;strokeColor=none;labelPosition=center;verticalLabelPosition=bottom;verticalAlign=top;align=center;fillColor=#00188D;shape=mxgraph.azure.laptop" vertex="1" parent="1">
          <mxGeometry x="220" y="130" width="50" height="30" as="geometry" />
        </mxCell>
        <mxCell id="vdpzPohevGCHTZ9PX8rA-6" value="" style="endArrow=classic;html=1;rounded=0;entryX=0.92;entryY=0.5;entryDx=0;entryDy=0;entryPerimeter=0;exitX=0.925;exitY=1.133;exitDx=0;exitDy=0;exitPerimeter=0;" edge="1" parent="1" source="vdpzPohevGCHTZ9PX8rA-9" target="vdpzPohevGCHTZ9PX8rA-3">
          <mxGeometry width="50" height="50" relative="1" as="geometry">
            <mxPoint x="560" y="145" as="sourcePoint" />
            <mxPoint x="370" y="110" as="targetPoint" />
          </mxGeometry>
        </mxCell>
        <mxCell id="vdpzPohevGCHTZ9PX8rA-7" value="" style="shape=image;html=1;verticalAlign=top;verticalLabelPosition=bottom;labelBackgroundColor=#ffffff;imageAspect=0;aspect=fixed;image=https://cdn4.iconfinder.com/data/icons/socialcones/508/Gitlab-128.png;imageBackground=default;fillStyle=auto;" vertex="1" parent="1">
          <mxGeometry x="450" y="90" width="128" height="128" as="geometry" />
        </mxCell>
        <mxCell id="vdpzPohevGCHTZ9PX8rA-8" value="" style="image;sketch=0;aspect=fixed;html=1;points=[];align=center;fontSize=12;image=img/lib/mscae/Cloud_Services_Classic.svg;" vertex="1" parent="1">
          <mxGeometry x="489" y="288" width="50" height="42" as="geometry" />
        </mxCell>
        <mxCell id="vdpzPohevGCHTZ9PX8rA-9" value="pull 取程序代码" style="text;html=1;strokeColor=none;fillColor=none;align=center;verticalAlign=middle;whiteSpace=wrap;rounded=0;" vertex="1" parent="1">
          <mxGeometry x="310" y="110" width="120" height="30" as="geometry" />
        </mxCell>
        <mxCell id="vdpzPohevGCHTZ9PX8rA-10" value="开发人员" style="text;html=1;strokeColor=none;fillColor=none;align=center;verticalAlign=middle;whiteSpace=wrap;rounded=0;" vertex="1" parent="1">
          <mxGeometry x="154" y="179" width="60" height="30" as="geometry" />
        </mxCell>
        <mxCell id="vdpzPohevGCHTZ9PX8rA-11" value="" style="endArrow=classic;html=1;rounded=0;entryX=0.75;entryY=0;entryDx=0;entryDy=0;" edge="1" parent="1">
          <mxGeometry width="50" height="50" relative="1" as="geometry">
            <mxPoint x="260" y="160" as="sourcePoint" />
            <mxPoint x="430" y="160" as="targetPoint" />
          </mxGeometry>
        </mxCell>
        <mxCell id="vdpzPohevGCHTZ9PX8rA-14" value="DEV，TEST环境发布" style="text;html=1;strokeColor=none;fillColor=none;align=center;verticalAlign=middle;whiteSpace=wrap;rounded=0;" vertex="1" parent="1">
          <mxGeometry x="207" y="225" width="120" height="30" as="geometry" />
        </mxCell>
        <mxCell id="vdpzPohevGCHTZ9PX8rA-16" value="" style="endArrow=classic;html=1;rounded=0;exitX=0.5;exitY=1;exitDx=0;exitDy=0;exitPerimeter=0;" edge="1" parent="1" source="vdpzPohevGCHTZ9PX8rA-3">
          <mxGeometry width="50" height="50" relative="1" as="geometry">
            <mxPoint x="230" y="160" as="sourcePoint" />
            <mxPoint x="450" y="310" as="targetPoint" />
            <Array as="points">
              <mxPoint x="245" y="311" />
            </Array>
          </mxGeometry>
        </mxCell>
        <mxCell id="vdpzPohevGCHTZ9PX8rA-17" value="" style="endArrow=classic;html=1;rounded=0;dashed=1;entryX=0.42;entryY=0.286;entryDx=0;entryDy=0;entryPerimeter=0;" edge="1" parent="1" target="vdpzPohevGCHTZ9PX8rA-8">
          <mxGeometry width="50" height="50" relative="1" as="geometry">
            <mxPoint x="510" y="220" as="sourcePoint" />
            <mxPoint x="420" y="310" as="targetPoint" />
          </mxGeometry>
        </mxCell>
        <mxCell id="vdpzPohevGCHTZ9PX8rA-18" value="" style="image;sketch=0;aspect=fixed;html=1;points=[];align=center;fontSize=12;image=img/lib/mscae/OpenShift.svg;" vertex="1" parent="1">
          <mxGeometry x="927" y="283" width="50" height="46" as="geometry" />
        </mxCell>
        <mxCell id="vdpzPohevGCHTZ9PX8rA-19" value="" style="endArrow=classic;html=1;rounded=0;" edge="1" parent="1" source="vdpzPohevGCHTZ9PX8rA-8">
          <mxGeometry width="50" height="50" relative="1" as="geometry">
            <mxPoint x="420" y="310" as="sourcePoint" />
            <mxPoint x="600" y="309" as="targetPoint" />
          </mxGeometry>
        </mxCell>
        <mxCell id="vdpzPohevGCHTZ9PX8rA-21" value="dev环境" style="text;html=1;strokeColor=none;fillColor=none;align=center;verticalAlign=middle;whiteSpace=wrap;rounded=0;" vertex="1" parent="1">
          <mxGeometry x="979" y="291" width="60" height="30" as="geometry" />
        </mxCell>
        <mxCell id="vdpzPohevGCHTZ9PX8rA-22" value="" style="image;sketch=0;aspect=fixed;html=1;points=[];align=center;fontSize=12;image=img/lib/mscae/OpenShift.svg;" vertex="1" parent="1">
          <mxGeometry x="1124" y="283" width="50" height="46" as="geometry" />
        </mxCell>
        <mxCell id="vdpzPohevGCHTZ9PX8rA-23" value="test环境" style="text;html=1;strokeColor=none;fillColor=none;align=center;verticalAlign=middle;whiteSpace=wrap;rounded=0;" vertex="1" parent="1">
          <mxGeometry x="1181" y="289" width="60" height="30" as="geometry" />
        </mxCell>
        <mxCell id="vdpzPohevGCHTZ9PX8rA-24" value="" style="image;sketch=0;aspect=fixed;html=1;points=[];align=center;fontSize=12;image=img/lib/mscae/OpenShift.svg;" vertex="1" parent="1">
          <mxGeometry x="923" y="487" width="50" height="46" as="geometry" />
        </mxCell>
        <mxCell id="vdpzPohevGCHTZ9PX8rA-25" value="uat环境" style="text;html=1;strokeColor=none;fillColor=none;align=center;verticalAlign=middle;whiteSpace=wrap;rounded=0;" vertex="1" parent="1">
          <mxGeometry x="972" y="494" width="60" height="32" as="geometry" />
        </mxCell>
        <mxCell id="vdpzPohevGCHTZ9PX8rA-28" value="" style="image;sketch=0;aspect=fixed;html=1;points=[];align=center;fontSize=12;image=img/lib/mscae/OpenShift.svg;" vertex="1" parent="1">
          <mxGeometry x="1130" y="487" width="50" height="46" as="geometry" />
        </mxCell>
        <mxCell id="vdpzPohevGCHTZ9PX8rA-29" value="prod环境" style="text;html=1;strokeColor=none;fillColor=none;align=center;verticalAlign=middle;whiteSpace=wrap;rounded=0;" vertex="1" parent="1">
          <mxGeometry x="1179" y="495" width="70" height="30" as="geometry" />
        </mxCell>
        <mxCell id="vdpzPohevGCHTZ9PX8rA-30" value="SVW运维人员" style="text;html=1;strokeColor=none;fillColor=none;align=center;verticalAlign=middle;whiteSpace=wrap;rounded=0;" vertex="1" parent="1">
          <mxGeometry x="136.25" y="498" width="82.5" height="30" as="geometry" />
        </mxCell>
        <mxCell id="vdpzPohevGCHTZ9PX8rA-32" value="" style="image;sketch=0;aspect=fixed;html=1;points=[];align=center;fontSize=12;image=img/lib/mscae/Docker.svg;" vertex="1" parent="1">
          <mxGeometry x="640" y="359" width="50" height="41" as="geometry" />
        </mxCell>
        <mxCell id="vdpzPohevGCHTZ9PX8rA-38" value="" style="endArrow=classic;html=1;rounded=0;exitX=1.021;exitY=0.85;exitDx=0;exitDy=0;exitPerimeter=0;strokeColor=#FF3333;" edge="1" parent="1" source="vdpzPohevGCHTZ9PX8rA-2">
          <mxGeometry width="50" height="50" relative="1" as="geometry">
            <mxPoint x="200" y="490" as="sourcePoint" />
            <mxPoint x="450" y="483" as="targetPoint" />
            <Array as="points" />
          </mxGeometry>
        </mxCell>
        <mxCell id="vdpzPohevGCHTZ9PX8rA-37" value="" style="image;sketch=0;aspect=fixed;html=1;points=[];align=center;fontSize=12;image=img/lib/mscae/Cloud_Services_Classic.svg;" vertex="1" parent="1">
          <mxGeometry x="480" y="460" width="50" height="42" as="geometry" />
        </mxCell>
        <mxCell id="vdpzPohevGCHTZ9PX8rA-39" value="" style="endArrow=classic;html=1;rounded=0;exitX=1.06;exitY=0.631;exitDx=0;exitDy=0;exitPerimeter=0;strokeColor=#FF3333;" edge="1" parent="1" source="vdpzPohevGCHTZ9PX8rA-37">
          <mxGeometry width="50" height="50" relative="1" as="geometry">
            <mxPoint x="530" y="480" as="sourcePoint" />
            <mxPoint x="600" y="487" as="targetPoint" />
          </mxGeometry>
        </mxCell>
        <mxCell id="vdpzPohevGCHTZ9PX8rA-41" value="UAT，PROD环境发布" style="text;html=1;strokeColor=none;fillColor=none;align=center;verticalAlign=middle;whiteSpace=wrap;rounded=0;" vertex="1" parent="1">
          <mxGeometry x="234" y="450" width="120" height="30" as="geometry" />
        </mxCell>
        <mxCell id="vdpzPohevGCHTZ9PX8rA-42" value="" style="shape=image;html=1;verticalAlign=top;verticalLabelPosition=bottom;labelBackgroundColor=#ffffff;imageAspect=0;aspect=fixed;image=https://cdn4.iconfinder.com/data/icons/socialcones/508/Gitlab-128.png" vertex="1" parent="1">
          <mxGeometry x="441" y="585" width="128" height="128" as="geometry" />
        </mxCell>
        <mxCell id="vdpzPohevGCHTZ9PX8rA-46" value="每个服务，每个环境一条流水线" style="text;html=1;strokeColor=none;fillColor=none;align=center;verticalAlign=middle;whiteSpace=wrap;rounded=0;" vertex="1" parent="1">
          <mxGeometry x="450" y="380" width="115" height="30" as="geometry" />
        </mxCell>
        <mxCell id="vdpzPohevGCHTZ9PX8rA-50" value="Jenkins" style="text;html=1;strokeColor=none;fillColor=none;align=center;verticalAlign=middle;whiteSpace=wrap;rounded=0;" vertex="1" parent="1">
          <mxGeometry x="484" y="323" width="60" height="30" as="geometry" />
        </mxCell>
        <mxCell id="vdpzPohevGCHTZ9PX8rA-56" value="镜像仓库" style="text;html=1;strokeColor=none;fillColor=none;align=center;verticalAlign=middle;whiteSpace=wrap;rounded=0;" vertex="1" parent="1">
          <mxGeometry x="635" y="410" width="60" height="30" as="geometry" />
        </mxCell>
        <mxCell id="vdpzPohevGCHTZ9PX8rA-58" value="" style="sketch=0;points=[[0,0,0],[0.25,0,0],[0.5,0,0],[0.75,0,0],[1,0,0],[0,1,0],[0.25,1,0],[0.5,1,0],[0.75,1,0],[1,1,0],[0,0.25,0],[0,0.5,0],[0,0.75,0],[1,0.25,0],[1,0.5,0],[1,0.75,0]];points=[[0,0,0],[0.25,0,0],[0.5,0,0],[0.75,0,0],[1,0,0],[0,1,0],[0.25,1,0],[0.5,1,0],[0.75,1,0],[1,1,0],[0,0.25,0],[0,0.5,0],[0,0.75,0],[1,0.25,0],[1,0.5,0],[1,0.75,0]];outlineConnect=0;fontColor=#232F3E;gradientColor=#F34482;gradientDirection=north;fillColor=#BC1356;strokeColor=#ffffff;dashed=0;verticalLabelPosition=bottom;verticalAlign=top;align=center;html=1;fontSize=12;fontStyle=0;aspect=fixed;shape=mxgraph.aws4.resourceIcon;resIcon=mxgraph.aws4.managed_service_for_prometheus;" vertex="1" parent="1">
          <mxGeometry x="930" y="770" width="78" height="78" as="geometry" />
        </mxCell>
        <mxCell id="vdpzPohevGCHTZ9PX8rA-60" value="" style="sketch=0;points=[[0,0,0],[0.25,0,0],[0.5,0,0],[0.75,0,0],[1,0,0],[0,1,0],[0.25,1,0],[0.5,1,0],[0.75,1,0],[1,1,0],[0,0.25,0],[0,0.5,0],[0,0.75,0],[1,0.25,0],[1,0.5,0],[1,0.75,0]];points=[[0,0,0],[0.25,0,0],[0.5,0,0],[0.75,0,0],[1,0,0],[0,1,0],[0.25,1,0],[0.5,1,0],[0.75,1,0],[1,1,0],[0,0.25,0],[0,0.5,0],[0,0.75,0],[1,0.25,0],[1,0.5,0],[1,0.75,0]];outlineConnect=0;fontColor=#232F3E;gradientColor=#F34482;gradientDirection=north;fillColor=#BC1356;strokeColor=#ffffff;dashed=0;verticalLabelPosition=bottom;verticalAlign=top;align=center;html=1;fontSize=12;fontStyle=0;aspect=fixed;shape=mxgraph.aws4.resourceIcon;resIcon=mxgraph.aws4.managed_service_for_prometheus;" vertex="1" parent="1">
          <mxGeometry x="740" y="770" width="78" height="78" as="geometry" />
        </mxCell>
        <mxCell id="vdpzPohevGCHTZ9PX8rA-66" value="Openshift运行环境" style="text;html=1;strokeColor=none;fillColor=none;align=center;verticalAlign=middle;whiteSpace=wrap;rounded=0;" vertex="1" parent="1">
          <mxGeometry x="1004" y="370" width="120" height="30" as="geometry" />
        </mxCell>
        <mxCell id="vdpzPohevGCHTZ9PX8rA-73" value="监控报警通知" style="text;html=1;strokeColor=none;fillColor=none;align=center;verticalAlign=middle;whiteSpace=wrap;rounded=0;" vertex="1" parent="1">
          <mxGeometry x="360" y="794" width="90" height="30" as="geometry" />
        </mxCell>
        <mxCell id="vdpzPohevGCHTZ9PX8rA-75" value="" style="endArrow=classic;startArrow=classic;html=1;rounded=0;entryX=0.5;entryY=1;entryDx=0;entryDy=0;" edge="1" parent="1" target="vdpzPohevGCHTZ9PX8rA-10">
          <mxGeometry width="50" height="50" relative="1" as="geometry">
            <mxPoint x="184" y="420" as="sourcePoint" />
            <mxPoint x="200" y="250" as="targetPoint" />
          </mxGeometry>
        </mxCell>
        <mxCell id="vdpzPohevGCHTZ9PX8rA-76" value="发布申请" style="text;html=1;strokeColor=none;fillColor=none;align=center;verticalAlign=middle;whiteSpace=wrap;rounded=0;" vertex="1" parent="1">
          <mxGeometry x="190" y="364.5" width="60" height="30" as="geometry" />
        </mxCell>
        <mxCell id="vdpzPohevGCHTZ9PX8rA-77" value="监控问题反馈" style="text;html=1;strokeColor=none;fillColor=none;align=center;verticalAlign=middle;whiteSpace=wrap;rounded=0;" vertex="1" parent="1">
          <mxGeometry x="90" y="239" width="90" height="50" as="geometry" />
        </mxCell>
        <mxCell id="vdpzPohevGCHTZ9PX8rA-78" value="" style="image;aspect=fixed;html=1;points=[];align=center;fontSize=12;image=img/lib/azure2/management_governance/Log_Analytics_Workspaces.svg;" vertex="1" parent="1">
          <mxGeometry x="1064" y="80" width="64" height="64" as="geometry" />
        </mxCell>
        <mxCell id="vdpzPohevGCHTZ9PX8rA-79" value="" style="image;aspect=fixed;html=1;points=[];align=center;fontSize=12;image=img/lib/azure2/management_governance/Log_Analytics_Workspaces.svg;" vertex="1" parent="1">
          <mxGeometry x="1190" y="75" width="64" height="64" as="geometry" />
        </mxCell>
        <mxCell id="vdpzPohevGCHTZ9PX8rA-81" value="" style="endArrow=classic;html=1;rounded=0;entryX=-0.014;entryY=0.136;entryDx=0;entryDy=0;exitX=0.5;exitY=0;exitDx=0;exitDy=0;exitPerimeter=0;entryPerimeter=0;" edge="1" parent="1" source="vdpzPohevGCHTZ9PX8rA-1" target="vdpzPohevGCHTZ9PX8rA-80">
          <mxGeometry width="50" height="50" relative="1" as="geometry">
            <mxPoint x="183.5" y="89.28932188134524" as="sourcePoint" />
            <mxPoint x="730" y="70" as="targetPoint" />
            <Array as="points">
              <mxPoint x="183" y="40" />
            </Array>
          </mxGeometry>
        </mxCell>
        <mxCell id="vdpzPohevGCHTZ9PX8rA-82" value="" style="endArrow=classic;html=1;rounded=0;entryX=0.115;entryY=1.013;entryDx=0;entryDy=0;entryPerimeter=0;" edge="1" parent="1" target="vdpzPohevGCHTZ9PX8rA-80">
          <mxGeometry width="50" height="50" relative="1" as="geometry">
            <mxPoint x="1053" y="280" as="sourcePoint" />
            <mxPoint x="1050" y="190" as="targetPoint" />
            <Array as="points" />
          </mxGeometry>
        </mxCell>
        <mxCell id="vdpzPohevGCHTZ9PX8rA-84" value="日志系统" style="text;html=1;strokeColor=none;fillColor=none;align=center;verticalAlign=middle;whiteSpace=wrap;rounded=0;" vertex="1" parent="1">
          <mxGeometry x="1120" y="30" width="60" height="30" as="geometry" />
        </mxCell>
        <mxCell id="vdpzPohevGCHTZ9PX8rA-95" value="日志收集" style="text;html=1;strokeColor=none;fillColor=none;align=center;verticalAlign=middle;whiteSpace=wrap;rounded=0;" vertex="1" parent="1">
          <mxGeometry x="989" y="188" width="60" height="30" as="geometry" />
        </mxCell>
        <mxCell id="vdpzPohevGCHTZ9PX8rA-97" value="push程序代码" style="text;html=1;strokeColor=none;fillColor=none;align=center;verticalAlign=middle;whiteSpace=wrap;rounded=0;" vertex="1" parent="1">
          <mxGeometry x="294" y="170" width="120" height="30" as="geometry" />
        </mxCell>
        <mxCell id="vdpzPohevGCHTZ9PX8rA-98" value="代码仓库" style="text;html=1;strokeColor=none;fillColor=none;align=center;verticalAlign=middle;whiteSpace=wrap;rounded=0;" vertex="1" parent="1">
          <mxGeometry x="590" y="139" width="90" height="30" as="geometry" />
        </mxCell>
        <mxCell id="vdpzPohevGCHTZ9PX8rA-99" value="监控系统" style="text;html=1;strokeColor=none;fillColor=none;align=center;verticalAlign=middle;whiteSpace=wrap;rounded=0;" vertex="1" parent="1">
          <mxGeometry x="863" y="760" width="60" height="30" as="geometry" />
        </mxCell>
        <mxCell id="vdpzPohevGCHTZ9PX8rA-101" value="" style="endArrow=classic;html=1;rounded=0;" edge="1" parent="1">
          <mxGeometry width="50" height="50" relative="1" as="geometry">
            <mxPoint x="730" y="359" as="sourcePoint" />
            <mxPoint x="850" y="359" as="targetPoint" />
          </mxGeometry>
        </mxCell>
        <mxCell id="vdpzPohevGCHTZ9PX8rA-104" value="" style="endArrow=classic;html=1;rounded=0;entryX=0.48;entryY=1;entryDx=0;entryDy=0;entryPerimeter=0;exitX=0.5;exitY=0;exitDx=0;exitDy=0;dashed=1;" edge="1" parent="1" source="vdpzPohevGCHTZ9PX8rA-42" target="vdpzPohevGCHTZ9PX8rA-37">
          <mxGeometry width="50" height="50" relative="1" as="geometry">
            <mxPoint x="490" y="590" as="sourcePoint" />
            <mxPoint x="540" y="540" as="targetPoint" />
          </mxGeometry>
        </mxCell>
        <mxCell id="vdpzPohevGCHTZ9PX8rA-105" value="Jenkins" style="text;html=1;strokeColor=none;fillColor=none;align=center;verticalAlign=middle;whiteSpace=wrap;rounded=0;" vertex="1" parent="1">
          <mxGeometry x="477.5" y="430" width="60" height="30" as="geometry" />
        </mxCell>
        <mxCell id="vdpzPohevGCHTZ9PX8rA-108" value="Openshift运行环境" style="text;html=1;strokeColor=none;fillColor=none;align=center;verticalAlign=middle;whiteSpace=wrap;rounded=0;" vertex="1" parent="1">
          <mxGeometry x="1015" y="570" width="120" height="30" as="geometry" />
        </mxCell>
        <mxCell id="vdpzPohevGCHTZ9PX8rA-109" value="" style="endArrow=classic;html=1;rounded=0;strokeColor=#FF3333;" edge="1" parent="1">
          <mxGeometry width="50" height="50" relative="1" as="geometry">
            <mxPoint x="725" y="499.33000000000004" as="sourcePoint" />
            <mxPoint x="845" y="499.33000000000004" as="targetPoint" />
          </mxGeometry>
        </mxCell>
        <mxCell id="vdpzPohevGCHTZ9PX8rA-115" value="" style="endArrow=classic;html=1;rounded=0;entryX=0.993;entryY=0.671;entryDx=0;entryDy=0;entryPerimeter=0;" edge="1" parent="1" target="vdpzPohevGCHTZ9PX8rA-80">
          <mxGeometry width="50" height="50" relative="1" as="geometry">
            <mxPoint x="1300" y="580" as="sourcePoint" />
            <mxPoint x="1350" y="530" as="targetPoint" />
            <Array as="points">
              <mxPoint x="1340" y="580" />
              <mxPoint x="1340" y="127" />
            </Array>
          </mxGeometry>
        </mxCell>
        <mxCell id="vdpzPohevGCHTZ9PX8rA-116" value="日志收集" style="text;html=1;strokeColor=none;fillColor=none;align=center;verticalAlign=middle;whiteSpace=wrap;rounded=0;" vertex="1" parent="1">
          <mxGeometry x="1340" y="316" width="60" height="30" as="geometry" />
        </mxCell>
        <mxCell id="vdpzPohevGCHTZ9PX8rA-118" value="" style="endArrow=classic;html=1;rounded=0;entryX=0.5;entryY=1;entryDx=0;entryDy=0;" edge="1" parent="1" target="vdpzPohevGCHTZ9PX8rA-30">
          <mxGeometry width="50" height="50" relative="1" as="geometry">
            <mxPoint x="700" y="830" as="sourcePoint" />
            <mxPoint x="630" y="790" as="targetPoint" />
            <Array as="points">
              <mxPoint x="180" y="830" />
            </Array>
          </mxGeometry>
        </mxCell>
        <mxCell id="vdpzPohevGCHTZ9PX8rA-119" value="" style="endArrow=classic;html=1;rounded=0;" edge="1" parent="1">
          <mxGeometry width="50" height="50" relative="1" as="geometry">
            <mxPoint x="1000" y="750" as="sourcePoint" />
            <mxPoint x="1000" y="630" as="targetPoint" />
          </mxGeometry>
        </mxCell>
        <mxCell id="vdpzPohevGCHTZ9PX8rA-120" value="服务状态监控" style="text;html=1;strokeColor=none;fillColor=none;align=center;verticalAlign=middle;whiteSpace=wrap;rounded=0;" vertex="1" parent="1">
          <mxGeometry x="1004" y="670" width="95" height="30" as="geometry" />
        </mxCell>
      </root>
    </mxGraphModel>
  </diagram>
</mxfile>
